<svg xmlns="http://www.w3.org/2000/svg" viewBox="0 0 100 100" width="100" height="100">
  <rect width="100" height="100" rx="22" fill="#1B2A6B"/>
  <g transform="translate(50,50)" fill="none" stroke="#D4AF37" stroke-width="1.4">
    <circle r="34" opacity="0.55"/>
    <circle r="23" opacity="0.4"/>
  </g>
  <g transform="translate(50,50)" stroke="#D4AF37" stroke-width="1" opacity="0.5">
    <line x1="0" y1="-34" x2="0" y2="34"/>
    <line x1="-34" y1="0" x2="34" y2="0"/>
    <line x1="-24" y1="-24" x2="24" y2="24"/>
    <line x1="-24" y1="24" x2="24" y2="-24"/>
  </g>
  <g transform="translate(50,50)" fill="#D4AF37">
    <circle cx="0" cy="-34" r="2.4"/><circle cx="24" cy="-24" r="2.4"/>
    <circle cx="34" cy="0" r="2.4"/><circle cx="24" cy="24" r="2.4"/>
    <circle cx="0" cy="34" r="2.4"/><circle cx="-24" cy="24" r="2.4"/>
    <circle cx="-34" cy="0" r="2.4"/><circle cx="-24" cy="-24" r="2.4"/>
  </g>
  <path d="M 56 38 A 16 16 0 1 0 56 62 A 13 13 0 1 1 56 38 Z" fill="#FAF8F2"/>
</svg>
